<svg width="12" height="12" viewBox="0 0 12 12" fill="none" xmlns="http://www.w3.org/2000/svg">
<path fill-rule="evenodd" clip-rule="evenodd" d="M11.9672 4.51336C11.8885 4.26041 11.6805 4.07593 11.4285 4.0382L8.08994 3.52949L6.59798 0.35847C6.37399 -0.11949 5.62601 -0.11949 5.40202 0.35847L3.91006 3.52949L0.571478 4.0382C0.319484 4.07593 0.11149 4.26041 0.0328253 4.51336C-0.0458393 4.76632 0.0194923 5.04303 0.200821 5.2289L2.61676 7.69696L2.04744 11.1824C2.00344 11.4438 2.1061 11.7093 2.31143 11.8658C2.51809 12.0238 2.79142 12.0433 3.01408 11.9189L5.99933 10.274L8.98592 11.9189C9.08325 11.972 9.18992 11.9986 9.29658 11.9986C9.43391 11.9986 9.57257 11.9539 9.68857 11.8658C9.89256 11.7093 9.99523 11.4438 9.95256 11.1824L9.38324 7.69696L11.7992 5.2289C11.9805 5.04303 12.0458 4.76632 11.9672 4.51336Z" fill="#FF3365"/>
</svg>
